PathFileType	4	(X/Y/Z)	 s09c0403.trc
DataRate	CameraRate	NumFrames	NumMarkers	Units	OrigDataRate	OrigDataStartFrame	OrigNumFrames
200	200	4	50	mm	200	751	2000
Frame#	Time	racr			lacr			c7			jug			rlel			rdr			llel			ldr			s2			lic			ric			lasi			rasi			rpsi			lpsi			rgt			lgt			rth1			rth2			rth3			rth4			rlfc			rmfc			rsh1			rsh2			rsh3			rsh4			rlmal			rmmal			rcal			rtoe			rmt5			lth1			lth2			lth4			lth3			llfc			lmfc			llmal			lmmal			lcal			lmt5			lsh1			lsh2			lsh3			lsh4			ltoe			SBIKE			LBIKE			RBIKE			
		X1	Y1	Z1	X2	Y2	Z2	X3	Y3	Z3	X4	Y4	Z4	X5	Y5	Z5	X6	Y6	Z6	X7	Y7	Z7	X8	Y8	Z8	X9	Y9	Z9	X10	Y10	Z10	X11	Y11	Z11	X12	Y12	Z12	X13	Y13	Z13	X14	Y14	Z14	X15	Y15	Z15	X16	Y16	Z16	X17	Y17	Z17	X18	Y18	Z18	X19	Y19	Z19	X20	Y20	Z20	X21	Y21	Z21	X22	Y22	Z22	X23	Y23	Z23	X24	Y24	Z24	X25	Y25	Z25	X26	Y26	Z26	X27	Y27	Z27	X28	Y28	Z28	X29	Y29	Z29	X30	Y30	Z30	X31	Y31	Z31	X32	Y32	Z32	X33	Y33	Z33	X34	Y34	Z34	X35	Y35	Z35	X36	Y36	Z36	X37	Y37	Z37	X38	Y38	Z38	X39	Y39	Z39	X40	Y40	Z40	X41	Y41	Z41	X42	Y42	Z42	X43	Y43	Z43	X44	Y44	Z44	X45	Y45	Z45	X46	Y46	Z46	X47	Y47	Z47	X48	Y48	Z48	X49	Y49	Z49	X50	Y50	Z50	
751	3.7550	748.803030	1251.184542	-52.220336	744.189653	1267.102891	-438.963086	751.032284	1344.126025	-242.755466	757.978873	1203.802085	-245.998549	554.530734	1083.144190	24.538326	690.335869	910.100825	-57.804209	536.597806	1088.374287	-524.012907	680.090246	906.740252	-445.904479	276.426210	1172.573599	-324.846789	429.524795	1119.479184	-432.825427	382.381805	1181.013164	-144.595888	453.815565	1051.844577	-375.260436	414.411998	1117.826227	-139.572873	293.957912	1211.421650	-266.593501	324.743976	1191.623746	-370.674319	337.349142	1067.303041	-85.433231	364.439568	984.729312	-453.480453	454.615035	981.700424	-81.344104	536.775124	949.452713	-85.499310	587.732243	878.118362	-80.726239	555.659844	969.788826	-108.796789	640.606693	786.131417	-104.964567	623.909644	765.611455	-205.358955	546.223334	744.476002	-77.563969	484.339405	680.413555	-88.252817	399.402920	657.156165	-86.185773	499.852655	658.153257	-116.385695	311.165919	599.811020	-84.658574	317.803880	608.318930	-161.643999	224.889887	619.130550	-120.156358	433.804427	453.677749	-129.761243	359.720119	489.292558	-63.357135	363.966608	859.297899	-446.096003	388.830716	779.142154	-431.873688	422.489565	781.278487	-413.293207	368.984519	691.297456	-424.805993	355.561784	597.866394	-405.379307	354.191394	583.270443	-305.513439	195.899312	267.546481	-415.287072	219.868946	269.643854	-348.022362	124.914663	263.481333	-375.845859	256.855423	147.424661	-430.627454	304.367446	511.169844	-429.482360	291.718178	425.991098	-421.827887	236.841145	356.231758	-420.328916	317.369183	417.229581	-392.308607	347.016242	125.219576	-360.701068	-64.894885	851.808190	-239.351790	20.900340	84.887000	-442.150308	20.969448	84.179952	-43.829585	
752	3.7600	749.213356	1250.984352	-49.690221	745.336955	1265.668685	-435.900673	751.676782	1343.540999	-240.544339	758.140684	1203.016308	-243.474381	554.655381	1082.780191	26.010533	690.230514	910.787319	-56.647234	536.832033	1088.769109	-522.451230	681.040661	906.555396	-446.113543	277.074539	1174.754224	-325.702570	431.220563	1120.084445	-432.571531	382.414751	1182.047735	-144.582082	454.550665	1052.514513	-375.176751	414.057011	1118.641134	-138.993507	294.790479	1213.012030	-266.770070	326.073573	1193.206222	-370.891342	337.307518	1068.590107	-85.674484	364.314040	986.041163	-453.906823	453.895342	983.260245	-81.267596	536.479032	951.962653	-84.915735	587.932079	881.166341	-79.578026	555.432153	972.670019	-107.852200	641.772988	790.642056	-102.239769	627.955176	769.483749	-203.684922	548.952262	745.906482	-76.961099	488.172065	680.481161	-88.092065	404.842104	655.546195	-85.186826	504.657261	658.737316	-115.872628	317.080560	596.009498	-85.061801	323.373952	604.656768	-162.005975	230.445273	612.752991	-120.260252	444.500176	454.420664	-129.489266	369.052059	487.425333	-63.168918	364.248432	860.358965	-446.631099	388.792069	780.087996	-432.825954	422.574511	782.077953	-414.181661	368.641031	692.233901	-425.500230	353.965401	598.837033	-406.550141	354.239342	583.775678	-306.419469	187.493859	271.334198	-415.433594	211.791649	273.262812	-347.954509	116.508283	268.313163	-375.430654	246.668156	150.280045	-430.469947	301.333214	512.901744	-430.237429	286.734633	427.987095	-422.378357	230.310353	359.589603	-420.550925	312.392043	418.775577	-393.147778	336.552313	126.840429	-360.725408	-64.866137	851.843803	-239.244010	20.886712	84.929346	-442.140800	20.944438	84.143527	-43.810522	
753	3.7650	749.719538	1250.576055	-47.431042	746.653437	1264.114730	-433.323591	752.448256	1342.782735	-238.358113	758.109267	1201.916667	-241.193439	554.755054	1082.507916	27.486748	690.316465	911.001286	-55.522516	537.088820	1088.804249	-520.287405	681.301265	906.646617	-445.646864	277.991062	1176.645597	-325.399988	432.772166	1120.846687	-432.231395	382.690159	1183.269798	-144.432843	455.209058	1053.439805	-375.494395	413.799523	1119.297709	-138.626158	295.732300	1214.739211	-266.530189	327.220312	1195.070362	-370.823221	337.671057	1069.877912	-85.867922	363.926283	987.629615	-454.330005	453.031227	984.734798	-81.044825	535.967503	954.030174	-84.245909	586.709750	884.482251	-77.306871	555.072088	974.943127	-106.857098	643.342424	793.435046	-101.813928	630.447714	772.006912	-203.057611	551.054388	746.510506	-76.324824	491.781651	679.611758	-87.742232	408.693348	652.713824	-85.700508	508.922014	658.209864	-115.463365	322.719062	591.357489	-85.414413	328.426169	600.056291	-162.235595	235.821765	605.409199	-120.415603	455.068522	454.414892	-129.454970	378.093462	484.916902	-63.007170	364.661053	861.462064	-447.214748	389.269568	781.142477	-433.589013	423.081461	783.281662	-415.040964	368.979858	693.479933	-426.187709	353.521397	599.811584	-407.645680	355.284385	584.492478	-307.614155	179.281534	275.833458	-415.427306	204.058806	277.385575	-347.807111	108.389889	273.765966	-374.913786	236.666433	153.924605	-430.391671	299.280044	514.765091	-430.952954	282.525576	430.329425	-422.773014	224.326720	363.364881	-420.696264	308.043204	420.416975	-393.670683	326.220348	129.118369	-360.704073	-64.848448	851.871225	-239.133297	20.893773	84.973716	-442.147692	20.913003	84.132731	-43.795896	
754	3.7700	750.327649	1250.061719	-45.382365	747.980104	1262.164496	-430.599490	753.261940	1341.951211	-236.310759	758.141831	1200.884994	-238.948127	554.906062	1082.285837	29.047247	690.364860	911.109684	-54.297049	536.918856	1089.056789	-518.897524	681.418533	906.675946	-445.310552	278.866532	1178.923839	-324.992763	434.176067	1121.755175	-431.805265	383.294164	1184.406919	-144.097158	455.740023	1054.727653	-376.089619	413.710901	1119.739657	-138.432112	296.676742	1216.610683	-266.011611	328.201956	1197.086935	-370.388608	338.276935	1071.159626	-85.982868	363.428869	989.394631	-454.679535	452.131568	985.966711	-80.890362	535.240199	955.504002	-83.451039	586.256463	886.200118	-76.454806	554.537618	976.733342	-105.822767	644.237653	795.032300	-101.359472	632.010031	773.747343	-202.389991	552.753449	746.241616	-75.547628	494.891905	677.907430	-87.426307	412.485644	649.007078	-85.713275	512.663644	657.206066	-115.236620	328.069553	585.820368	-85.823747	333.282159	594.637162	-162.533898	240.816600	597.076318	-120.745214	464.938297	454.201184	-128.844568	386.781569	481.706280	-62.653797	365.306849	862.722301	-447.678774	390.151115	782.456738	-434.208898	424.157673	784.619469	-415.824559	370.172437	694.675898	-426.714235	354.303933	600.703885	-408.660024	357.233203	585.232368	-308.948392	171.525676	280.985420	-415.350504	196.689189	282.143178	-347.548026	100.664841	279.990413	-374.508102	226.981620	158.232143	-430.139912	298.098914	516.784390	-431.608182	279.000423	432.810284	-423.013726	219.012203	367.591519	-420.723558	304.320046	422.304014	-393.949261	316.120643	131.912146	-360.639816	-64.826369	851.901392	-239.018089	20.909607	85.021479	-442.135085	20.900649	84.124971	-43.778803	
